<svg width="34" height="37" viewBox="0 0 34 37" fill="none" xmlns="http://www.w3.org/2000/svg">
<path d="M33.2249 20.3866V7.5506H25.6798V-0.000976562H15.1024V11.3257H10.5716V7.5506H0V20.3866C0 20.8885 0.0237291 21.3853 0.0675917 21.8786V21.9002C0.833392 30.3542 7.96 37.0012 16.611 37.0012C25.262 37.0012 32.393 30.352 33.1559 21.898V21.8757C33.2019 21.3853 33.2249 20.8885 33.2249 20.3866ZM30.2042 10.5714V18.8773H25.6798V10.5714H30.2042ZM10.5716 21.898H15.1024V33.8956C14.3762 33.8143 13.6614 33.6755 12.9582 33.4792C12.255 33.2822 11.5718 33.0305 10.9089 32.7228C10.2459 32.4157 9.61241 32.0576 9.00768 31.6478C8.40295 31.2386 7.83489 30.7827 7.3035 30.2816C7.75507 29.6725 8.1635 29.0354 8.52734 28.3703C8.89191 27.7052 9.20901 27.0185 9.47938 26.3095C9.74903 25.6012 9.96978 24.8778 10.1409 24.1386C10.3121 23.4001 10.4314 22.653 10.5004 21.898H10.5716ZM18.1232 21.898H22.7223C22.7906 22.653 22.91 23.4001 23.0811 24.1386C23.2523 24.8771 23.473 25.6012 23.7427 26.3095C24.013 27.0177 24.3301 27.7044 24.6947 28.3696C25.0593 29.0347 25.467 29.6718 25.9186 30.2808C25.3879 30.782 24.8198 31.2379 24.2151 31.6471C23.6104 32.0569 22.9762 32.415 22.3132 32.7228C21.6509 33.0298 20.9678 33.2815 20.2639 33.4785C19.5606 33.6748 18.8459 33.8136 18.1196 33.8948L18.1232 21.898ZM18.1232 3.02052H22.654V18.8773H18.1232V3.0198V3.02052ZM10.5716 14.3464H15.1024V18.8773H10.5716V14.3464ZM3.02149 10.5714H7.55158V18.8773H3.02149V10.5714ZM7.46745 21.898C7.34808 22.9701 7.10432 24.0128 6.73616 25.0274C6.368 26.0413 5.88551 26.9976 5.28941 27.8972C4.69115 26.9983 4.20723 26.0427 3.83763 25.0281C3.46875 24.0142 3.22427 22.9709 3.10562 21.898H7.46745ZM27.937 27.8957C27.3401 26.9969 26.8576 26.0405 26.4895 25.0267C26.1213 24.0128 25.8776 22.9701 25.7589 21.898H30.12C30.0014 22.9701 29.7569 24.0135 29.388 25.0274C29.0184 26.042 28.5352 26.9976 27.937 27.8957Z" fill="white"/>
</svg>
