<svg width="41" height="40" viewBox="0 0 41 40" fill="none" xmlns="http://www.w3.org/2000/svg">
  <path d="M25.5003 6.66699C23.7322 6.66699 22.0365 7.36937 20.7863 8.61961C19.536 9.86986 18.8337 11.5655 18.8337 13.3337C18.8337 15.1018 19.536 16.7975 20.7863 18.0477C22.0365 19.2979 23.7322 20.0003 25.5003 20.0003C27.2684 20.0003 28.9641 19.2979 30.2144 18.0477C31.4646 16.7975 32.167 15.1018 32.167 13.3337C32.167 11.5655 31.4646 9.86986 30.2144 8.61961C28.9641 7.36937 27.2684 6.66699 25.5003 6.66699ZM25.5003 9.83366C27.4337 9.83366 29.0003 11.4003 29.0003 13.3337C29.0003 15.267 27.4337 16.8337 25.5003 16.8337C24.5721 16.8337 23.6818 16.4649 23.0255 15.8085C22.3691 15.1522 22.0003 14.2619 22.0003 13.3337C22.0003 12.4054 22.3691 11.5152 23.0255 10.8588C23.6818 10.2024 24.5721 9.83366 25.5003 9.83366ZM7.16699 11.667V16.667H2.16699V20.0003H7.16699V25.0003H10.5003V20.0003H15.5003V16.667H10.5003V11.667H7.16699ZM25.5003 21.667C21.0503 21.667 12.167 23.8837 12.167 28.3337V33.3337H38.8337V28.3337C38.8337 23.8837 29.9503 21.667 25.5003 21.667ZM25.5003 24.8337C30.4503 24.8337 35.667 27.267 35.667 28.3337V30.167H15.3337V28.3337C15.3337 27.267 20.5003 24.8337 25.5003 24.8337Z" fill="white"/>
</svg>