<svg width="36" height="41" viewBox="0 0 36 41"  xmlns="http://www.w3.org/2000/svg">
<path d="M18.375 0.333496L36 7.66683V18.6668C36 28.8418 28.48 38.3568 18.375 40.6668C8.27 38.3568 0.75 28.8418 0.75 18.6668V7.66683L18.375 0.333496ZM18.375 4.33016L4.66667 10.0502V19.0702C4.66667 26.9902 11.0312 35.1668 18.375 37.0002C25.7188 35.1668 32.0833 26.9902 32.0833 19.0702V10.0502L18.375 4.33016ZM26.2083 24.1668V26.9168V27.0818C26.13 27.4852 25.7775 27.7602 25.2879 27.8335H25.0921H11.6579H11.4621C10.9725 27.7602 10.62 27.4852 10.5417 27.0818V26.9168V24.1668H26.2083ZM28.1667 13.1668L26.2083 22.3335H10.5417L8.58333 13.1668L13.8121 18.0618L18.375 13.7902L22.9379 18.0618L28.1667 13.1668Z" fill="white"/>
</svg>
