<svg width="102" height="99" viewBox="0 0 102 99" fill="none" xmlns="http://www.w3.org/2000/svg">
<path d="M85.466 41.861V14.7955H69.7994V0H47.8663V23.9385H38.4664V14.7955H16.5332V41.8673C16.5332 42.9201 16.5896 43.9666 16.6836 45.0006C18.2753 62.5408 33.052 76.3337 50.9996 76.3337C68.9472 76.3337 83.7301 62.5408 85.3218 45.0006C85.4158 43.9666 85.466 42.9201 85.466 41.8673M22.7998 21.0621H32.1997V38.734H22.7998V21.0621ZM22.9816 45.0006H32.0243C31.5292 49.4499 29.9814 53.7112 27.5123 57.4398C25.0871 53.7989 23.4891 49.5627 22.9816 45.0006ZM47.8663 69.8853C41.6435 69.196 36.0224 66.47 31.6921 62.3967C35.4584 57.3145 37.7457 51.2985 38.3222 45.0006H47.8726V69.8916L47.8663 69.8853ZM47.8663 38.7277H38.4664V30.1988H47.8663V38.7277ZM69.7994 21.0558H79.1994V38.7277H69.7994V21.0558ZM54.1329 6.26035H63.5328V38.7277H54.1329V6.26662V6.26035ZM54.1329 69.879V44.988H63.6832C64.2598 51.286 66.5471 57.2957 70.3133 62.3716C65.9831 66.4512 60.3619 69.1834 54.1329 69.8728V69.879ZM74.4869 57.4273C72.0178 53.7049 70.47 49.4436 69.9749 44.988H79.0239C78.5163 49.5501 76.912 53.7801 74.4931 57.4273H74.4869Z" fill="white"/>
<path d="M5.30976 98.7806H0.302734V86.1221H5.30976C7.50934 86.1221 9.08853 86.5043 10.3544 87.4255C11.6014 88.3405 12.648 89.8256 12.648 92.4514C12.648 97.1075 9.52719 98.7806 5.30976 98.7806ZM7.25241 90.5463C6.95788 90.233 6.46282 89.9948 5.69202 89.9948H5.06536V94.8201H5.69202C7.30881 94.8201 7.80387 93.9741 7.80387 92.4514C7.80387 91.3171 7.56574 90.8346 7.25241 90.5463Z" fill="#E98272"/>
<path d="M17.078 98.7804H12.2715L16.4889 86.1406H21.8281L26.0455 98.7804H20.9821L20.581 97.0195H17.4602L17.078 98.7804ZM18.1433 94.0303H19.9042L19.0582 90.4896L18.1433 94.0303Z" fill="#E98272"/>
<path d="M32.2502 89.788V98.7744H27.5189V89.788H24.6738V86.1221H35.1077V89.788H32.2439H32.2502Z" fill="#E98272"/>
<path d="M38.6415 98.7804H33.835L38.0524 86.1406H43.3916L47.609 98.7804H42.5456L42.1445 97.0195H39.0237L38.6415 98.7804ZM39.7068 94.0303H41.4677L40.6217 90.4896L39.7068 94.0303Z" fill="#E98272"/>
<path d="M53.174 98.7806H48.167V86.1221H53.174C55.3736 86.1221 56.9528 86.5043 58.2186 87.4255C59.4657 88.3405 60.5122 89.8256 60.5122 92.4514C60.5122 97.1075 57.3977 98.7806 53.174 98.7806ZM55.1167 90.5463C54.8221 90.233 54.3271 89.9948 53.5563 89.9948H52.9296V94.8201H53.5563C55.1731 94.8201 55.6681 93.9741 55.6681 92.4514C55.6681 91.3171 55.43 90.8346 55.1167 90.5463Z" fill="#E98272"/>
<path d="M67.4554 99C63.6014 99 61.4395 97.2767 61.4395 93.335V86.1284H66.1895V93.5544C66.1895 94.3627 66.6094 94.9142 67.4554 94.9142C68.3014 94.9142 68.7025 94.3815 68.7025 93.5544V86.1284H73.4714V93.335C73.4714 97.2767 71.3094 99 67.4554 99Z" fill="#E98272"/>
<path d="M82.5021 98.7806L79.5317 92.489C79.5317 92.489 79.6445 93.7924 79.6445 94.488V98.7806H75.001V86.1221H80.008L82.9784 92.3762C82.9784 92.3762 82.8656 90.9787 82.8656 90.4147V86.1221H87.5091V98.7806H82.5021Z" fill="#E98272"/>
<path d="M93.8634 95.1648V98.7806H89.1133V86.1221H93.8634V89.8256L95.9 86.1221H101.44L97.5356 91.2607L101.697 98.7806H96.0442L94.3208 94.6008L93.8634 95.1711V95.1648Z" fill="#E98272"/>
</svg>
